<?xml version="1.0" encoding="utf-8"?>
<!-- Generator: Adobe Illustrator 27.5.0, SVG Export Plug-In . SVG Version: 6.00 Build 0)  -->
<svg version="1.1" id="Layer_1" xmlns="http://www.w3.org/2000/svg" xmlns:xlink="http://www.w3.org/1999/xlink" x="0px" y="0px"
	 viewBox="0 0 400 400" style="enable-background:new 0 0 400 400;" xml:space="preserve">
<g>
	<g>
		<defs>
			<rect id="SVGID_1_" transform="matrix(-1 -1.224647e-16 1.224647e-16 -1 400 400)" width="400" height="400"/>
		</defs>
		<clipPath id="SVGID_00000101088088629768297350000005965215414166063295_">
			<use xlink:href="#SVGID_1_"  style="overflow:visible;"/>
		</clipPath>
		
			<radialGradient id="SVGID_00000051361845855134201080000010271988252335273384_" cx="199.9942" cy="200" r="199.9981" gradientTransform="matrix(-1 0 0 1 400 0)" gradientUnits="userSpaceOnUse">
			<stop  offset="0" style="stop-color:#F2F2F2"/>
			<stop  offset="1" style="stop-color:#E6E6E6"/>
		</radialGradient>
		
			<polygon style="clip-path:url(#SVGID_00000101088088629768297350000005965215414166063295_);fill:url(#SVGID_00000051361845855134201080000010271988252335273384_);" points="
			0.008,399.998 235.05,399.998 282.165,378.636 378.642,282.159 400.004,235.044 400.004,0.002 164.962,0.002 117.847,21.364 
			21.369,117.841 0.008,164.956 		"/>
		<g style="clip-path:url(#SVGID_00000101088088629768297350000005965215414166063295_);">
			<g>
				<polygon style="fill:#FFFFFF;" points="136.234,8.633 48.449,48.443 8.638,136.23 				"/>
				<polygon style="fill:#E3E3E3;" points="133.936,10.224 48.827,48.821 10.229,133.931 				"/>
				<polygon style="fill:#C6C6C6;" points="131.637,11.816 49.205,49.199 11.821,131.632 				"/>
				<polygon style="fill:#AAAAAA;" points="129.339,13.407 49.582,49.576 13.412,129.334 				"/>
				<polygon style="fill:#8E8E8E;" points="127.041,14.998 49.96,49.954 15.003,127.035 				"/>
				<polygon style="fill:#717171;" points="124.742,16.59 50.338,50.332 16.595,124.737 				"/>
				<polygon style="fill:#555555;" points="122.444,18.181 50.715,50.71 18.187,122.438 				"/>
				<polygon style="fill:#383838;" points="120.146,19.772 51.093,51.087 19.778,120.14 				"/>
				<polygon style="fill:#1C1C1C;" points="21.369,117.841 117.847,21.364 51.471,51.465 				"/>
			</g>
			
				<radialGradient id="SVGID_00000091708428999001015970000016403037994818012589_" cx="330.3918" cy="69.6024" r="48.2388" gradientTransform="matrix(-1 0 0 1 400 0)" gradientUnits="userSpaceOnUse">
				<stop  offset="0" style="stop-color:#00FFFF"/>
				<stop  offset="1" style="stop-color:#189FEE"/>
			</radialGradient>
			<polygon style="fill:url(#SVGID_00000091708428999001015970000016403037994818012589_);" points="21.369,117.841 117.847,21.364 
				51.471,51.465 			"/>
			<g>
				<polygon style="fill:#FFFFFF;" points="25.012,119.493 59.507,43.43 -3.992,72.222 -3.992,183.466 				"/>
				<polygon style="fill:#E3E3E3;" points="24.556,119.287 58.502,44.434 -3.492,72.544 -3.492,181.152 				"/>
				<polygon style="fill:#C6C6C6;" points="24.101,119.08 57.498,45.438 -2.992,72.866 -2.992,178.838 				"/>
				<polygon style="fill:#AAAAAA;" points="23.646,118.874 56.493,46.443 -2.492,73.188 -2.492,176.525 				"/>
				<polygon style="fill:#8E8E8E;" points="23.191,118.667 55.489,47.447 -1.992,73.511 -1.992,174.211 				"/>
				<polygon style="fill:#717171;" points="22.735,118.461 54.484,48.452 -1.492,73.833 -1.492,171.897 				"/>
				<polygon style="fill:#555555;" points="22.28,118.254 53.48,49.456 -0.992,74.155 -0.992,169.583 				"/>
				<polygon style="fill:#383838;" points="21.825,118.048 52.475,50.461 -0.492,74.477 -0.492,167.27 				"/>
				<polygon style="fill:#1C1C1C;" points="0.008,164.956 21.369,117.841 51.471,51.465 0.008,74.8 				"/>
			</g>
			
				<linearGradient id="SVGID_00000157266291410665678140000009980264238778655882_" gradientUnits="userSpaceOnUse" x1="348.529" y1="108.2104" x2="399.9922" y2="108.2104" gradientTransform="matrix(-1 0 0 1 400 0)">
				<stop  offset="0" style="stop-color:#3B3B3B"/>
				<stop  offset="0.4914" style="stop-color:#2E2E2E"/>
				<stop  offset="1" style="stop-color:#1B1B1B"/>
			</linearGradient>
			<polygon style="fill:url(#SVGID_00000157266291410665678140000009980264238778655882_);" points="0.008,164.956 21.369,117.841 
				51.471,51.465 0.008,74.8 			"/>
			<g>
				<polygon style="fill:#FFFFFF;" points="183.471,-3.998 89.739,-3.998 -3.992,-3.998 -3.992,38.504 -3.992,59.755 -3.992,81.005 
					42.874,59.755 89.739,38.504 				"/>
				<polygon style="fill:#E3E3E3;" points="-3.492,-3.498 87.872,-3.498 134.515,-3.498 181.157,-3.498 128.422,20.414 
					88.832,38.366 54.092,54.119 42.671,59.297 -3.492,80.23 -3.492,59.298 -3.492,38.366 				"/>
				<polygon style="fill:#C6C6C6;" points="-2.992,-2.998 86.006,-2.998 132.425,-2.998 178.843,-2.998 126.911,20.549 
					87.924,38.229 53.717,53.74 42.469,58.84 -2.992,79.454 -2.992,58.841 -2.992,38.228 				"/>
				<polygon style="fill:#AAAAAA;" points="-2.492,-2.498 84.139,-2.498 130.334,-2.498 176.53,-2.498 125.401,20.685 
					87.017,38.091 53.343,53.361 42.267,58.383 -2.492,78.678 -2.492,58.384 -2.492,38.09 				"/>
				<polygon style="fill:#8E8E8E;" points="-1.992,-1.998 82.272,-1.998 128.244,-1.998 174.216,-1.998 123.89,20.821 
					86.109,37.953 52.969,52.981 42.064,57.926 -1.992,77.902 -1.992,57.927 -1.992,37.952 				"/>
				<polygon style="fill:#717171;" points="-1.492,-1.498 80.406,-1.498 126.154,-1.498 171.902,-1.498 122.379,20.956 
					85.201,37.816 52.594,52.602 41.862,57.469 -1.492,77.127 -1.492,57.471 -1.492,37.814 				"/>
				<polygon style="fill:#555555;" points="-0.992,-0.998 78.539,-0.998 124.064,-0.998 169.589,-0.998 120.869,21.092 
					84.294,37.678 52.22,52.223 41.66,57.011 -0.992,76.351 -0.992,57.014 -0.992,37.676 				"/>
				<polygon style="fill:#383838;" points="-0.492,-0.498 76.672,-0.498 121.974,-0.498 167.275,-0.498 119.358,21.228 
					83.386,37.541 51.845,51.844 41.458,56.554 -0.492,75.575 -0.492,56.557 -0.492,37.539 				"/>
				<polygon style="fill:#1C1C1C;" points="74.805,0.002 119.883,0.002 164.962,0.002 117.847,21.364 51.471,51.465 0.008,74.8 
					0.008,37.401 0.008,0.002 				"/>
			</g>
			
				<linearGradient id="SVGID_00000183928672685723466640000017747848189892146594_" gradientUnits="userSpaceOnUse" x1="324.9022" y1="31.1437" x2="381.5688" y2="-16.8563" gradientTransform="matrix(-1 0 0 1 400 0)">
				<stop  offset="0" style="stop-color:#3B3B3B"/>
				<stop  offset="0.4914" style="stop-color:#2E2E2E"/>
				<stop  offset="1" style="stop-color:#1B1B1B"/>
			</linearGradient>
			<polygon style="fill:url(#SVGID_00000183928672685723466640000017747848189892146594_);" points="74.805,0.002 164.962,0.002 
				117.847,21.364 51.471,51.465 0.008,74.8 0.008,0.002 			"/>
		</g>
		<g style="clip-path:url(#SVGID_00000101088088629768297350000005965215414166063295_);">
			<g>
				<polygon style="fill:#FFFFFF;" points="263.766,391.372 351.551,351.562 391.362,263.776 				"/>
				<polygon style="fill:#E3E3E3;" points="266.064,389.781 351.173,351.184 389.771,266.074 				"/>
				<polygon style="fill:#C6C6C6;" points="268.362,388.19 350.795,350.806 388.179,268.373 				"/>
				<polygon style="fill:#AAAAAA;" points="270.661,386.598 350.418,350.428 386.588,270.671 				"/>
				<polygon style="fill:#8E8E8E;" points="272.959,385.007 350.04,350.051 384.996,272.97 				"/>
				<polygon style="fill:#717171;" points="275.258,383.415 349.662,349.673 383.405,275.268 				"/>
				<polygon style="fill:#555555;" points="277.556,381.824 349.284,349.295 381.813,277.567 				"/>
				<polygon style="fill:#383838;" points="279.854,380.233 348.907,348.918 380.222,279.865 				"/>
				<polygon style="fill:#1C1C1C;" points="378.631,282.164 282.153,378.641 348.529,348.54 				"/>
			</g>
			
				<radialGradient id="SVGID_00000016771379031887957800000005374186061607273872_" cx="96.9212" cy="193.0651" r="48.2388" gradientTransform="matrix(1 0 0 -1 233.4706 523.4677)" gradientUnits="userSpaceOnUse">
				<stop  offset="0" style="stop-color:#00FFFF"/>
				<stop  offset="1" style="stop-color:#189FEE"/>
			</radialGradient>
			<polygon style="fill:url(#SVGID_00000016771379031887957800000005374186061607273872_);" points="378.631,282.164 
				282.153,378.641 348.529,348.54 			"/>
			<g>
				<polygon style="fill:#FFFFFF;" points="374.988,280.512 340.493,356.575 403.992,327.783 403.992,216.539 				"/>
				<polygon style="fill:#E3E3E3;" points="375.444,280.718 341.498,355.571 403.492,327.461 403.492,218.853 				"/>
				<polygon style="fill:#C6C6C6;" points="375.899,280.925 342.502,354.566 402.992,327.139 402.992,221.167 				"/>
				<polygon style="fill:#AAAAAA;" points="376.354,281.131 343.507,353.562 402.492,326.816 402.492,223.48 				"/>
				<polygon style="fill:#8E8E8E;" points="376.809,281.338 344.511,352.558 401.992,326.494 401.992,225.794 				"/>
				<polygon style="fill:#717171;" points="377.265,281.544 345.516,351.553 401.492,326.172 401.492,228.108 				"/>
				<polygon style="fill:#555555;" points="377.72,281.751 346.52,350.549 400.992,325.85 400.992,230.422 				"/>
				<polygon style="fill:#383838;" points="378.175,281.957 347.525,349.544 400.492,325.527 400.492,232.736 				"/>
				<polygon style="fill:#1C1C1C;" points="399.992,235.049 378.631,282.164 348.529,348.54 399.992,325.205 				"/>
			</g>
			
				<linearGradient id="SVGID_00000055705160186229905550000011929255307777953959_" gradientUnits="userSpaceOnUse" x1="115.0584" y1="231.6732" x2="166.5217" y2="231.6732" gradientTransform="matrix(1 0 0 -1 233.4706 523.4677)">
				<stop  offset="0" style="stop-color:#3B3B3B"/>
				<stop  offset="0.4914" style="stop-color:#2E2E2E"/>
				<stop  offset="1" style="stop-color:#1B1B1B"/>
			</linearGradient>
			<polygon style="fill:url(#SVGID_00000055705160186229905550000011929255307777953959_);" points="399.992,235.049 
				378.631,282.164 348.529,348.54 399.992,325.205 			"/>
			<g>
				<polygon style="fill:#FFFFFF;" points="216.529,404.003 310.261,404.003 403.992,404.003 403.992,382.752 403.992,361.501 
					403.992,319 310.261,361.501 263.395,382.752 				"/>
				<polygon style="fill:#E3E3E3;" points="403.492,319.775 403.492,361.639 403.492,382.571 403.492,403.503 312.128,403.503 
					265.485,403.503 218.843,403.503 265.007,382.571 271.534,379.611 311.172,361.637 345.838,345.918 				"/>
				<polygon style="fill:#C6C6C6;" points="402.992,320.551 402.992,361.777 402.992,382.39 402.992,403.003 313.994,403.003 
					267.575,403.003 221.157,403.003 266.618,382.389 273.051,379.473 312.084,361.773 346.222,346.293 				"/>
				<polygon style="fill:#AAAAAA;" points="402.492,321.327 402.492,361.915 402.492,382.209 402.492,402.503 315.861,402.503 
					269.666,402.503 223.47,402.503 268.23,382.208 274.568,379.334 312.995,361.909 346.607,346.667 				"/>
				<polygon style="fill:#8E8E8E;" points="401.992,322.103 401.992,362.053 401.992,382.028 401.992,402.003 317.728,402.003 
					271.756,402.003 225.784,402.003 269.841,382.027 276.085,379.196 313.907,362.044 346.991,347.042 				"/>
				<polygon style="fill:#717171;" points="401.492,322.878 401.492,362.191 401.492,381.847 401.492,401.503 319.594,401.503 
					273.846,401.503 228.097,401.503 271.453,381.845 277.602,379.057 314.818,362.18 347.376,347.416 				"/>
				<polygon style="fill:#555555;" points="400.992,323.654 400.992,362.328 400.992,381.666 400.992,401.003 321.461,401.003 
					275.936,401.003 230.411,401.003 273.064,381.664 279.119,378.918 315.73,362.316 347.76,347.791 				"/>
				<polygon style="fill:#383838;" points="400.492,324.43 400.492,362.466 400.492,381.485 400.492,400.503 323.328,400.503 
					278.026,400.503 232.725,400.503 274.676,381.482 280.636,378.78 316.641,362.452 348.145,348.165 				"/>
				<polygon style="fill:#1C1C1C;" points="325.194,400.003 280.116,400.003 235.038,400.003 282.153,378.641 348.529,348.54 
					399.992,325.205 399.992,362.604 399.992,400.003 				"/>
			</g>
			
				<linearGradient id="SVGID_00000032623320780729719140000013583459184555724217_" gradientUnits="userSpaceOnUse" x1="22.9608" y1="425.6296" x2="73.9607" y2="371.6296" gradientTransform="matrix(-1 0 0 1 400 0)">
				<stop  offset="0" style="stop-color:#1B1B1B"/>
				<stop  offset="0.5086" style="stop-color:#2E2E2E"/>
				<stop  offset="1" style="stop-color:#3B3B3B"/>
			</linearGradient>
			<polygon style="fill:url(#SVGID_00000032623320780729719140000013583459184555724217_);" points="325.194,400.003 
				235.038,400.003 282.153,378.641 348.529,348.54 399.992,325.205 399.992,400.003 			"/>
		</g>
	</g>
	<g>
		<g>
			<path style="fill:#8E8E8E;" d="M123.039,190.576h1.703l3.598,8.455h-1.931l-0.768-1.883h-3.55l-0.768,1.883h-1.883
				L123.039,190.576z M124.982,195.517l-1.115-2.723l-1.116,2.723H124.982z"/>
			<path style="fill:#8E8E8E;" d="M129.641,190.635h3.898c0.96,0,1.715,0.264,2.195,0.744c0.383,0.384,0.575,0.852,0.575,1.427
				v0.024c0,0.947-0.504,1.475-1.104,1.811c0.972,0.372,1.571,0.936,1.571,2.063v0.024c0,1.535-1.247,2.303-3.143,2.303h-3.993
				V190.635z M133.143,194.03c0.815,0,1.331-0.264,1.331-0.888v-0.024c0-0.552-0.432-0.863-1.211-0.863h-1.823v1.775H133.143z
				 M133.634,197.412c0.815,0,1.308-0.288,1.308-0.911v-0.024c0-0.564-0.42-0.911-1.367-0.911h-2.135v1.847H133.634z"/>
			<path style="fill:#8E8E8E;" d="M137.729,197.807l1.092-1.307c0.755,0.623,1.547,1.02,2.507,1.02c0.755,0,1.211-0.3,1.211-0.792
				v-0.024c0-0.468-0.288-0.707-1.691-1.067c-1.69-0.432-2.782-0.899-2.782-2.566v-0.023c0-1.523,1.224-2.531,2.938-2.531
				c1.224,0,2.267,0.384,3.118,1.067l-0.959,1.392c-0.744-0.516-1.476-0.827-2.184-0.827c-0.707,0-1.079,0.323-1.079,0.731v0.023
				c0,0.552,0.359,0.731,1.811,1.104c1.703,0.444,2.663,1.056,2.663,2.518v0.024c0,1.667-1.271,2.603-3.082,2.603
				C140.02,199.151,138.736,198.706,137.729,197.807z"/>
			<path style="fill:#8E8E8E;" d="M147.759,192.338h-2.554v-1.703h6.956v1.703h-2.555v6.692h-1.848V192.338z"/>
			<path style="fill:#8E8E8E;" d="M153.581,190.635h3.838c1.067,0,1.895,0.3,2.446,0.852c0.468,0.468,0.72,1.128,0.72,1.919v0.024
				c0,1.354-0.732,2.206-1.799,2.602l2.051,2.998h-2.159l-1.799-2.687h-0.024h-1.427v2.687h-1.847V190.635z M157.299,194.713
				c0.899,0,1.415-0.479,1.415-1.188v-0.024c0-0.791-0.552-1.199-1.451-1.199h-1.835v2.411H157.299z"/>
			<path style="fill:#8E8E8E;" d="M165.135,190.576h1.703l3.598,8.455h-1.931l-0.768-1.883h-3.55l-0.768,1.883h-1.883
				L165.135,190.576z M167.078,195.517l-1.115-2.723l-1.116,2.723H167.078z"/>
			<path style="fill:#8E8E8E;" d="M170.824,194.857v-0.023c0-2.387,1.799-4.342,4.378-4.342c1.583,0,2.53,0.527,3.31,1.295
				l-1.175,1.355c-0.648-0.588-1.308-0.947-2.147-0.947c-1.415,0-2.435,1.175-2.435,2.614v0.024c0,1.439,0.996,2.638,2.435,2.638
				c0.96,0,1.548-0.384,2.207-0.983l1.176,1.188c-0.864,0.924-1.823,1.499-3.442,1.499
				C172.659,199.174,170.824,197.268,170.824,194.857z"/>
			<path style="fill:#8E8E8E;" d="M182.007,192.338h-2.554v-1.703h6.956v1.703h-2.555v6.692h-1.848V192.338z"/>
			<path style="fill:#8E8E8E;" d="M191.429,190.635h3.898c0.96,0,1.715,0.264,2.194,0.744c0.385,0.384,0.576,0.852,0.576,1.427
				v0.024c0,0.947-0.504,1.475-1.104,1.811c0.972,0.372,1.571,0.936,1.571,2.063v0.024c0,1.535-1.247,2.303-3.143,2.303h-3.993
				V190.635z M194.931,194.03c0.815,0,1.331-0.264,1.331-0.888v-0.024c0-0.552-0.432-0.863-1.211-0.863h-1.823v1.775H194.931z
				 M195.422,197.412c0.815,0,1.308-0.288,1.308-0.911v-0.024c0-0.564-0.42-0.911-1.367-0.911h-2.135v1.847H195.422z"/>
			<path style="fill:#8E8E8E;" d="M202.97,190.576h1.703l3.598,8.455h-1.931l-0.768-1.883h-3.55l-0.768,1.883h-1.883L202.97,190.576
				z M204.913,195.517l-1.115-2.723l-1.116,2.723H204.913z"/>
			<path style="fill:#8E8E8E;" d="M208.66,194.857v-0.023c0-2.387,1.799-4.342,4.378-4.342c1.583,0,2.53,0.527,3.31,1.295
				l-1.175,1.355c-0.648-0.588-1.308-0.947-2.148-0.947c-1.415,0-2.435,1.175-2.435,2.614v0.024c0,1.439,0.996,2.638,2.435,2.638
				c0.96,0,1.548-0.384,2.207-0.983l1.176,1.188c-0.864,0.924-1.823,1.499-3.442,1.499
				C210.495,199.174,208.66,197.268,208.66,194.857z"/>
			<path style="fill:#8E8E8E;" d="M217.888,190.635h1.847v3.67l3.406-3.67h2.23l-3.418,3.563l3.574,4.833h-2.219l-2.602-3.574
				l-0.972,1.008v2.566h-1.847V190.635z"/>
			<path style="fill:#8E8E8E;" d="M225.616,194.857v-0.023c0-2.387,1.859-4.342,4.401-4.342c1.512,0,2.423,0.407,3.298,1.151
				l-1.163,1.403c-0.647-0.54-1.224-0.852-2.194-0.852c-1.344,0-2.411,1.188-2.411,2.614v0.024c0,1.535,1.056,2.662,2.543,2.662
				c0.672,0,1.271-0.168,1.739-0.504v-1.199h-1.859v-1.595h3.646v3.646c-0.864,0.731-2.052,1.331-3.587,1.331
				C227.415,199.174,225.616,197.339,225.616,194.857z"/>
			<path style="fill:#8E8E8E;" d="M235.395,190.635h3.838c1.067,0,1.895,0.3,2.446,0.852c0.468,0.468,0.72,1.128,0.72,1.919v0.024
				c0,1.354-0.731,2.206-1.799,2.602l2.051,2.998h-2.159l-1.799-2.687h-0.024h-1.427v2.687h-1.847V190.635z M239.113,194.713
				c0.899,0,1.415-0.479,1.415-1.188v-0.024c0-0.791-0.552-1.199-1.451-1.199h-1.835v2.411H239.113z"/>
			<path style="fill:#8E8E8E;" d="M243.7,194.857v-0.023c0-2.387,1.883-4.342,4.474-4.342c2.591,0,4.449,1.931,4.449,4.317v0.024
				c0,2.387-1.883,4.341-4.474,4.341C245.56,199.174,243.7,197.244,243.7,194.857z M250.692,194.857v-0.023
				c0-1.439-1.056-2.639-2.543-2.639c-1.487,0-2.519,1.175-2.519,2.614v0.024c0,1.439,1.056,2.638,2.543,2.638
				C249.661,197.471,250.692,196.296,250.692,194.857z"/>
			<path style="fill:#8E8E8E;" d="M254.14,195.433v-4.798h1.847v4.749c0,1.368,0.684,2.075,1.811,2.075
				c1.128,0,1.811-0.684,1.811-2.015v-4.809h1.847v4.737c0,2.543-1.427,3.79-3.682,3.79
				C255.519,199.163,254.14,197.904,254.14,195.433z"/>
			<path style="fill:#8E8E8E;" d="M263.344,190.635h1.703l3.934,5.169v-5.169h1.823v8.396h-1.571l-4.066-5.337v5.337h-1.822V190.635
				z"/>
			<path style="fill:#8E8E8E;" d="M272.823,190.635h3.273c2.639,0,4.462,1.811,4.462,4.174v0.024c0,2.362-1.823,4.197-4.462,4.197
				h-3.273V190.635z M276.097,197.364c1.512,0,2.531-1.02,2.531-2.507v-0.023c0-1.487-1.02-2.531-2.531-2.531h-1.427v5.062H276.097z
				"/>
		</g>
		<g>
			<path style="fill:#8E8E8E;" d="M135.444,203.99h0.45l2.123,4.992l2.132-4.992h0.427l-2.388,5.465h-0.357L135.444,203.99z"/>
			<path style="fill:#8E8E8E;" d="M143.734,203.99h3.859v0.372h-3.457v2.132h3.108v0.372h-3.108v2.178h3.496v0.372h-3.898V203.99z"
				/>
			<path style="fill:#8E8E8E;" d="M150.698,206.718v-0.016c0-1.535,1.147-2.807,2.714-2.807c0.969,0,1.55,0.357,2.108,0.869
				l-0.287,0.294c-0.473-0.457-1.016-0.798-1.829-0.798c-1.303,0-2.287,1.062-2.287,2.426v0.016c0,1.372,1,2.441,2.295,2.441
				c0.782,0,1.317-0.302,1.867-0.845l0.271,0.264c-0.573,0.565-1.193,0.945-2.154,0.945
				C151.845,209.508,150.698,208.276,150.698,206.718z"/>
			<path style="fill:#8E8E8E;" d="M160.173,204.362h-1.891v-0.372h4.186v0.372h-1.892v5.054h-0.403V204.362z"/>
			<path style="fill:#8E8E8E;" d="M165.037,206.718v-0.016c0-1.48,1.094-2.807,2.736-2.807c1.644,0,2.721,1.311,2.721,2.791
				c0.008,0.008,0.008,0.008,0,0.016c0,1.48-1.093,2.806-2.736,2.806C166.115,209.508,165.037,208.199,165.037,206.718z
				 M170.076,206.718v-0.016c0-1.341-0.977-2.441-2.318-2.441c-1.341,0-2.302,1.085-2.302,2.426v0.016
				c0,1.341,0.977,2.441,2.317,2.441C169.115,209.144,170.076,208.059,170.076,206.718z"/>
			<path style="fill:#8E8E8E;" d="M173.876,203.99h2.279c0.667,0,1.201,0.209,1.527,0.534c0.256,0.256,0.41,0.62,0.41,1.008v0.016
				c0,0.907-0.674,1.427-1.589,1.551l1.791,2.317h-0.512l-1.729-2.248h-0.016h-1.76v2.248h-0.403V203.99z M176.109,206.803
				c0.907,0,1.582-0.457,1.582-1.24v-0.016c0-0.729-0.574-1.186-1.559-1.186h-1.852v2.441H176.109z"/>
			<path style="fill:#8E8E8E;" d="M185.884,203.99h0.403v5.426h-0.403V203.99z"/>
			<path style="fill:#8E8E8E;" d="M189.966,203.99h0.403v5.054h3.187v0.372h-3.59V203.99z"/>
			<path style="fill:#8E8E8E;" d="M196.777,203.99h0.402v5.054h3.186v0.372h-3.589V203.99z"/>
			<path style="fill:#8E8E8E;" d="M203.345,207.16v-3.17h0.403v3.131c0,1.279,0.69,2.016,1.837,2.016
				c1.101,0,1.807-0.666,1.807-1.977v-3.17h0.402v3.124c0,1.558-0.906,2.387-2.225,2.387
				C204.268,209.501,203.345,208.679,203.345,207.16z"/>
			<path style="fill:#8E8E8E;" d="M210.984,208.624l0.264-0.302c0.597,0.55,1.147,0.806,1.945,0.806
				c0.814,0,1.372-0.457,1.372-1.077v-0.016c0-0.573-0.302-0.907-1.534-1.155c-1.303-0.263-1.829-0.705-1.829-1.526v-0.016
				c0-0.807,0.736-1.427,1.743-1.427c0.791,0,1.311,0.218,1.861,0.659l-0.256,0.317c-0.512-0.441-1.023-0.612-1.62-0.612
				c-0.799,0-1.326,0.458-1.326,1.023v0.016c0,0.573,0.295,0.923,1.582,1.187c1.255,0.255,1.782,0.705,1.782,1.495v0.016
				c0,0.876-0.752,1.48-1.798,1.48C212.302,209.493,211.635,209.206,210.984,208.624z"/>
			<path style="fill:#8E8E8E;" d="M219.692,204.362h-1.891v-0.372h4.186v0.372h-1.892v5.054h-0.403V204.362z"/>
			<path style="fill:#8E8E8E;" d="M225.222,203.99h2.279c0.667,0,1.201,0.209,1.527,0.534c0.256,0.256,0.41,0.62,0.41,1.008v0.016
				c0,0.907-0.674,1.427-1.589,1.551l1.791,2.317h-0.512l-1.729-2.248h-0.016h-1.76v2.248h-0.403V203.99z M227.455,206.803
				c0.907,0,1.582-0.457,1.582-1.24v-0.016c0-0.729-0.574-1.186-1.559-1.186h-1.853v2.441H227.455z"/>
			<path style="fill:#8E8E8E;" d="M234.9,203.951h0.388l2.526,5.465h-0.441l-0.689-1.52h-3.202l-0.69,1.52h-0.419L234.9,203.951z
				 M236.512,207.532l-1.427-3.14l-1.433,3.14H236.512z"/>
			<path style="fill:#8E8E8E;" d="M241.778,204.362h-1.891v-0.372h4.186v0.372h-1.892v5.054h-0.403V204.362z"/>
			<path style="fill:#8E8E8E;" d="M247.363,203.99h0.403v5.426h-0.403V203.99z"/>
			<path style="fill:#8E8E8E;" d="M251.205,206.718v-0.016c0-1.48,1.094-2.807,2.736-2.807c1.644,0,2.721,1.311,2.721,2.791
				c0.008,0.008,0.008,0.008,0,0.016c0,1.48-1.093,2.806-2.736,2.806C252.283,209.508,251.205,208.199,251.205,206.718z
				 M256.244,206.718v-0.016c0-1.341-0.977-2.441-2.318-2.441c-1.341,0-2.302,1.085-2.302,2.426v0.016
				c0,1.341,0.977,2.441,2.317,2.441C255.283,209.144,256.244,208.059,256.244,206.718z"/>
			<path style="fill:#8E8E8E;" d="M260.044,203.99h0.38l3.744,4.721v-4.721h0.388v5.426h-0.302l-3.822-4.821v4.821h-0.388V203.99z"
				/>
		</g>
	</g>
</g>
</svg>
